<svg xmlns="http://www.w3.org/2000/svg" xmlns:xlink="http://www.w3.org/1999/xlink" version="1.1" x="0px" y="0px" viewBox="0 0 100 125" style="enable-background:new 0 0 100 100;" xml:space="preserve"><g><path d="M73.6,45.6l-16.4,0c-1.5,0-2.8-1.2-2.8-2.8V26.6c0-2.3-1.7-4.4-4-4.6c-2.6-0.3-4.8,1.8-4.8,4.4v16.4c0,1.5-1.2,2.8-2.8,2.8   H26.7c-2.3,0-4.4,1.7-4.6,4.1c-0.1,1.3,0.4,2.6,1.3,3.4c0.8,0.8,1.9,1.3,3.1,1.3l16.4,0c1.5,0,2.8,1.2,2.8,2.8l0,16.4   c0,1.2,0.5,2.3,1.3,3.1c0.9,0.9,2.1,1.4,3.4,1.3c2.3-0.2,4.1-2.3,4.1-4.6c0-3.9,0-11.9,0-16.2c0-1.5,1.2-2.8,2.8-2.8h16.2   c2.3,0,4.4-1.7,4.6-4C78.2,47.8,76.2,45.6,73.6,45.6z"/><path d="M50,2.5C23.8,2.5,2.5,23.8,2.5,50S23.8,97.5,50,97.5S97.5,76.2,97.5,50S76.2,2.5,50,2.5z M50,88.7   c-21.4,0-38.7-17.3-38.7-38.7c0-21.4,17.3-38.7,38.7-38.7S88.7,28.6,88.7,50C88.7,71.4,71.4,88.7,50,88.7z"/></g></svg>